<?xml version="1.0" standalone="no"?>
<!DOCTYPE svg PUBLIC "-//W3C//DTD SVG 20010904//EN"
 "http://www.w3.org/TR/2001/REC-SVG-20010904/DTD/svg10.dtd">
<svg version="1.0" xmlns="http://www.w3.org/2000/svg"
 width="360.000000pt" height="360.000000pt" viewBox="0 0 360.000000 360.000000"
 preserveAspectRatio="xMidYMid meet">

<g transform="translate(0.000000,360.000000) scale(0.100000,-0.100000)"
fill="#000000" stroke="none">
<path d="M1035 3400 c-567 -110 -1031 -199 -1032 -200 -2 0 -3 -630 -3 -1399
l0 -1399 28 -6 c15 -3 299 -58 632 -121 333 -64 786 -151 1008 -194 l402 -78
0 1799 c0 989 -1 1798 -2 1797 -2 0 -466 -90 -1033 -199z m-491 -927 c3 -16
10 -59 16 -98 6 -38 40 -247 76 -462 35 -216 64 -416 65 -445 1 -47 2 -50 10
-23 4 17 56 258 116 538 l107 507 133 0 c73 0 133 -3 133 -6 0 -4 41 -222 90
-485 50 -262 90 -490 90 -505 0 -15 2 -25 5 -22 4 4 99 571 151 906 l17 102
123 0 c68 0 124 -4 124 -9 0 -5 -63 -315 -140 -690 -77 -375 -140 -684 -140
-686 0 -3 -61 -5 -135 -5 -131 0 -135 1 -140 23 -29 126 -185 908 -185 929 0
15 -4 30 -10 33 -5 3 -10 -3 -10 -15 0 -24 -189 -950 -196 -962 -3 -4 -67 -8
-144 -8 l-138 0 -16 73 c-20 91 -276 1328 -276 1333 0 2 60 4 134 4 l134 0 6
-27z"/>
<path d="M2220 3184 c0 -2 -1 -95 -1 -206 l0 -203 483 -1 483 -1 3 -142 3
-141 -485 0 -485 0 -3 -135 -3 -135 485 -2 485 -3 3 -137 3 -138 -484 0 c-266
0 -486 -2 -488 -4 -2 -2 -3 -65 -1 -140 l3 -136 485 0 484 0 0 -135 0 -135
-485 0 -485 0 0 -140 0 -140 485 0 486 0 -3 -137 -3 -138 -485 -3 -485 -2 2
-203 2 -202 649 0 c611 0 649 1 676 18 59 39 56 -28 56 1362 0 1390 3 1323
-56 1362 -26 17 -66 18 -676 19 -356 1 -648 0 -648 -2z"/>
</g>
</svg>
