<?xml version="1.0" standalone="no"?>
<!DOCTYPE svg PUBLIC "-//W3C//DTD SVG 20010904//EN"
 "http://www.w3.org/TR/2001/REC-SVG-20010904/DTD/svg10.dtd">
<svg version="1.0" xmlns="http://www.w3.org/2000/svg"
 width="1869.000000pt" height="2048.000000pt" viewBox="0 0 1869.000000 2048.000000"
 preserveAspectRatio="xMidYMid meet">

<g transform="translate(0.000000,2048.000000) scale(0.100000,-0.100000)"
fill="#000000" stroke="none">
<path d="M8765 20473 c-365 -5 -839 -34 -1190 -73 -369 -42 -833 -114 -851
-133 -6 -7 -440 -516 -964 -1132 -525 -616 -984 -1156 -1022 -1199 l-68 -79 0
-738 0 -739 2180 0 2180 0 0 -280 0 -280 -3047 0 -3048 0 -1424 -1672 -1425
-1671 -13 -96 c-45 -324 -64 -613 -64 -976 0 -322 10 -515 42 -800 63 -568
224 -1357 365 -1788 220 -671 544 -1153 989 -1472 115 -83 379 -215 519 -260
130 -42 313 -80 455 -95 62 -6 426 -10 922 -10 l819 0 0 1073 c0 884 3 1094
15 1199 70 601 351 1167 799 1613 155 155 254 236 434 356 284 189 624 333
937 398 284 58 113 54 2745 61 2414 6 2415 6 2525 28 850 165 1514 788 1725
1619 70 277 65 76 65 2628 0 2552 5 2347 -65 2611 -211 795 -932 1446 -1860
1679 -566 143 -1724 241 -2675 228z m-1985 -1353 c232 -65 416 -219 520 -435
61 -125 79 -192 87 -325 13 -232 -65 -451 -219 -616 -365 -390 -987 -340
-1282 105 -91 137 -136 287 -136 459 -1 414 273 749 675 828 95 18 258 11 355
-16z"/>
</g>
</svg>
